#!OML:ASF H:\Terrain\Patient Classification 1\Terrain2\Thursday\justin.ASF
:FULLY-SPECIFIED
:DEGREES
1172
root 19.8957 20.5203 -0.214815 -300.936 -85.7673 -52.237
lowerback 8.04489 2.22249 2.27245
upperback 2.72435 3.08624 2.58408
thorax -1.70903 1.49188 1.1023
lowerneck -11.9043 -2.06914 -10.9996
upperneck 35.1342 -3.12229 5.00734
head 14.2801 -2.53736 3.4101
rclavicle 1.31198e-014 7.95139e-016
rhumerus -28.5787 0.597484 -84.7068
rradius 40.3435
rwrist -14.8068
rhand -22.0833 13.7062
rfingers 7.12502
rthumb 4.32835 -16.2295
lclavicle 1.31198e-014 7.95139e-016
lhumerus -41.8653 13.0426 77.9254
lradius 34.6104
lwrist 7.9247
lhand -21.2792 18.6027
lfingers 7.12502
lthumb 5.10481 48.5212
rfemur -14.4517 -25.7881 25.2427
rtibia 43.9925
rfoot -25.9031 -23.8906
rtoes 5.73637
lfemur -21.2179 1.24548 -17.565
ltibia 39.5241
lfoot -20.2821 -6.93475
ltoes 11.8264
1173
root 19.8657 20.5128 -0.20171 -304.629 -85.482 -48.4898
lowerback 8.10789 2.20694 2.38944
upperback 2.71828 3.07674 2.53686
thorax -1.74118 1.48728 0.986644
lowerneck -11.6387 -2.09813 -11.0951
upperneck 34.8212 -3.17629 5.10626
head 14.0865 -2.5476 3.45348
rclavicle -5.40694e-014 -2.78299e-014
rhumerus -28.5851 0.893757 -84.8754
rradius 40.4777
rwrist -15.1131
rhand -22.3593 14.1461
rfingers 7.12502
rthumb 4.06184 -15.7949
lclavicle -5.40694e-014 -2.78299e-014
lhumerus -41.9525 12.9124 77.8802
lradius 34.4612
lwrist 7.24809
lhand -21.0652 18.1553
lfingers 7.12502
lthumb 5.31141 48.0687
rfemur -14.4448 -26.0384 25.2689
rtibia 44.08
rfoot -25.8446 -24.0583
rtoes 4.8329
lfemur -21.2293 0.915744 -17.5372
ltibia 39.5844
lfoot -20.414 -6.79743
ltoes 10.2546
1174
root 19.8382 20.509 -0.189979 -308.888 -85.4093 -44.2005
lowerback 8.21718 2.38548 2.367
upperback 2.72706 3.31453 2.35747
thorax -1.78346 1.60692 0.787751
lowerneck -11.3908 -2.29677 -11.1674
upperneck 34.6237 -3.54627 5.34992
head 13.9876 -2.67679 3.5073
rclavicle -2.3059e-014 1.11319e-014
rhumerus -28.8651 1.18294 -84.9842
rradius 41.0386
rwrist -15.8471
rhand -22.4527 14.2638
rfingers 7.12502
rthumb 3.9716 -15.6789
lclavicle -2.3059e-014 1.11319e-014
lhumerus -41.8829 12.3031 77.9877
lradius 34.371
lwrist 6.91085
lhand -20.9188 17.8021
lfingers 7.12502
lthumb 5.45271 47.712
rfemur -14.3806 -25.9775 25.0233
rtibia 44.1239
rfoot -25.9078 -24.0878
rtoes 5.76345
lfemur -21.2317 0.728406 -17.7662
ltibia 39.6965
lfoot -20.5444 -6.91268
ltoes 9.96252
1175
root 19.8104 20.5036 -0.186321 -309.988 -84.9755 -43.0163
lowerback 8.2885 2.51273 2.57941
upperback 2.7429 3.50109 2.37741
thorax -1.79423 1.699 0.669754
lowerneck -11.3604 -2.53166 -11.3141
upperneck 34.5399 -3.88781 5.48066
head 13.9896 -2.81876 3.53395
rclavicle 1.8487e-014 1.98785e-014
rhumerus -29.1189 1.85138 -85.129
rradius 41.6079
rwrist -16.4877
rhand -22.7689 14.14
rfingers 7.12502
rthumb 3.66626 -15.8082
lclavicle 1.8487e-014 1.98785e-014
lhumerus -41.7147 11.703 78.141
lradius 34.2595
lwrist 6.83493
lhand -20.5946 17.7375
lfingers 7.12502
lthumb 5.76572 47.6391
rfemur -14.3716 -25.8932 25.3284
rtibia 44.1515
rfoot -25.9207 -24.3093
rtoes 6.31186
lfemur -21.3365 0.915667 -17.5052
ltibia 39.8006
lfoot -20.6164 -7.56695
ltoes 11.2477
1176
root 19.7745 20.4999 -0.184616 -313.03 -84.5601 -39.8469
lowerback 8.19915 2.42833 2.47197
upperback 2.75984 3.37804 2.48493
thorax -1.74091 1.63766 0.856281
lowerneck -11.3237 -2.62238 -11.6238
upperneck 34.4719 -3.92151 5.44313
head 13.9662 -2.87356 3.5666
rclavicle -1.27222e-014 1.74931e-014
rhumerus -29.2267 2.91919 -85.384
rradius 41.9161
rwrist -16.7234
rhand -23.535 13.9101
rfingers 7.12502
rthumb 2.92645 -16.0496
lclavicle -1.27222e-014 1.74931e-014
lhumerus -41.7113 11.7267 78.1909
lradius 34.1092
lwrist 6.74244
lhand -20.3692 17.5059
lfingers 7.12502
lthumb 5.98334 47.4015
rfemur -14.4195 -26.0486 25.5107
rtibia 44.195
rfoot -25.7922 -24.8395
rtoes 5.61394
lfemur -21.44 0.926669 -17.419
ltibia 39.881
lfoot -20.7405 -8.04629
ltoes 11.583
1177
root 19.7372 20.4951 -0.182475 -319.045 -84.3825 -33.7347
lowerback 8.09701 2.40125 1.96831
upperback 2.78212 3.30116 2.45753
thorax -1.68921 1.60088 1.12073
lowerneck -11.2034 -2.69727 -11.8281
upperneck 34.4828 -4.01165 5.48652
head 13.9633 -2.93475 3.60769
rclavicle -1.70955e-014 -3.97569e-015
rhumerus -29.3259 3.38533 -85.5192
rradius 42.0975
rwrist -16.6678
rhand -23.8552 13.7034
rfingers 7.12502
rthumb 2.61719 -16.2603
lclavicle -1.70955e-014 -3.97569e-015
lhumerus -41.6636 12.031 78.1928
lradius 33.8294
lwrist 6.40143
lhand -20.1934 16.9552
lfingers 7.12502
lthumb 6.15314 46.8458
rfemur -14.4315 -26.3462 25.1984
rtibia 44.2628
rfoot -25.7609 -25.3047
rtoes 4.74765
lfemur -21.4539 0.600393 -17.7926
ltibia 39.9457
lfoot -20.8779 -8.17706
ltoes 10.8883
1178
root 19.7024 20.4873 -0.177205 -322.063 -84.0003 -30.7025
lowerback 8.14824 2.50084 1.942
upperback 2.79688 3.43216 2.39511
thorax -1.70089 1.66662 1.057
lowerneck -10.996 -2.81822 -11.8404
upperneck 34.3554 -4.28904 5.7426
head 13.8966 -3.01917 3.67209
rclavicle 1.59028e-015 -7.95139e-016
rhumerus -29.2017 2.7659 -85.5215
rradius 41.8831
rwrist -16.2472
rhand -23.6507 14.0523
rfingers 7.12502
rthumb 2.81469 -15.9088
lclavicle 1.59028e-015 -7.95139e-016
lhumerus -41.5676 12.0256 78.2046
lradius 33.6086
lwrist 6.08445
lhand -20.1595 16.5202
lfingers 7.12502
lthumb 6.18581 46.4099
rfemur -14.3287 -26.7397 25.1345
rtibia 44.3185
rfoot -25.8136 -25.4931
rtoes 4.3397
lfemur -21.3862 0.0652834 -17.8248
ltibia 40.0025
lfoot -20.8175 -8.30869
ltoes 11.9803
1179
root 19.6664 20.485 -0.173794 -324.214 -83.5543 -28.523
lowerback 8.19633 2.56479 2.05597
upperback 2.8045 3.52601 2.28018
thorax -1.70585 1.71437 0.864476
lowerneck -10.8392 -2.98445 -11.7875
upperneck 34.1825 -4.60064 5.89879
head 13.8225 -3.11986 3.67717
rclavicle 2.88238e-014 -1.51076e-014
rhumerus -28.7926 1.72241 -85.5554
rradius 41.3686
rwrist -15.5855
rhand -23.2835 14.4127
rfingers 7.12502
rthumb 3.16935 -15.5435
lclavicle 2.88238e-014 -1.51076e-014
lhumerus -41.622 11.379 78.1983
lradius 33.7307
lwrist 6.53524
lhand -19.946 16.4091
lfingers 7.12502
lthumb 6.39191 46.2927
rfemur -14.2312 -26.9805 25.1829
rtibia 44.3345
rfoot -25.6041 -25.8292
rtoes 3.75549
lfemur -21.3376 -0.667355 -17.7794
ltibia 40.0783
lfoot -20.4492 -8.4538
ltoes 15.0668
1180
root 19.6299 20.4833 -0.178062 -325.203 -83.0965 -27.5243
lowerback 8.2191 2.62691 2.16802
upperback 2.83714 3.61513 2.19279
thorax -1.67208 1.75964 0.703808
lowerneck -10.8065 -3.18242 -11.6793
upperneck 34.163 -4.9329 5.94297
head 13.8438 -3.24099 3.62582
rclavicle -2.16675e-014 1.59028e-015
rhumerus -28.6587 1.21136 -85.6657
rradius 41.3157
rwrist -15.1989
rhand -22.9736 14.1569
rfingers 7.12502
rthumb 3.46859 -15.7946
lclavicle -2.16675e-014 1.59028e-015
lhumerus -41.5894 11.7443 78.047
lradius 33.6422
lwrist 6.26178
lhand -19.8981 16.3804
lfingers 7.12502
lthumb 6.43818 46.2625
rfemur -14.0488 -26.5298 25.4114
rtibia 44.2883
rfoot -26.1973 -26.0477
rtoes 5.21316
lfemur -21.3234 -1.06363 -17.5962
ltibia 40.2084
lfoot -20.0251 -8.86613
ltoes 18.3864
1181
root 19.5943 20.4759 -0.178979 -324.897 -82.5894 -27.8521
lowerback 8.29604 2.67106 2.44854
upperback 2.8593 3.69586 2.19135
thorax -1.67318 1.79954 0.535837
lowerneck -10.656 -3.28461 -11.7091
upperneck 34.0776 -5.1465 6.12162
head 13.8032 -3.31277 3.67163
rclavicle 1.2921e-014 9.93923e-015
rhumerus -28.7525 1.46099 -85.8079
rradius 41.5016
rwrist -15.2227
rhand -23.1873 13.9906
rfingers 7.12502
rthumb 3.26225 -15.9642
lclavicle 1.2921e-014 9.93923e-015
lhumerus -41.5715 11.7994 77.9658
lradius 33.5223
lwrist 6.30349
lhand -20.1897 16.5626
lfingers 7.12502
lthumb 6.15667 46.4532
rfemur -13.7948 -25.9132 25.8045
rtibia 44.2243
rfoot -27.2882 -26.0893
rtoes 7.67301
lfemur -21.3219 -1.05547 -17.2431
ltibia 40.3646
lfoot -19.8951 -9.31802
ltoes 19.3866
1182
root 19.5575 20.4678 -0.173432 -326.52 -82.1816 -26.1198
lowerback 8.26209 2.72323 2.61932
upperback 2.85808 3.77619 2.0562
thorax -1.63464 1.84162 0.296344
lowerneck -10.4353 -3.39207 -11.8587
upperneck 33.8267 -5.38385 6.4679
head 13.6862 -3.38415 3.80061
rclavicle 9.14409e-015 0
rhumerus -28.7273 1.5365 -85.9039
rradius 41.5242
rwrist -15.2488
rhand -23.1768 14.1399
rfingers 7.12502
rthumb 3.27238 -15.8147
lclavicle 9.14409e-015 0
lhumerus -41.6084 11.737 77.7903
lradius 33.5444
lwrist 6.20809
lhand -20.1699 16.8042
lfingers 7.12502
lthumb 6.17578 46.6942
rfemur -13.7224 -25.8892 25.9061
rtibia 44.1818
rfoot -27.3918 -26.4956
rtoes 7.45555
lfemur -21.4274 -1.20162 -17.2336
ltibia 40.5173
lfoot -19.9809 -9.48607
ltoes 18.7974
1183
root 19.5153 20.4611 -0.168631 -328.42 -81.8842 -24.0513
lowerback 8.10997 2.9567 2.72157
upperback 2.88773 4.08466 1.77233
thorax -1.48801 2.00033 -0.0703111
lowerneck -10.3827 -3.74878 -11.6406
upperneck 33.639 -6.00847 6.66894
head 13.6661 -3.59158 3.74599
rclavicle 2.04748e-014 3.10104e-014
rhumerus -28.6077 0.828008 -85.9682
rradius 41.5022
rwrist -15.0034
rhand -22.7934 13.9441
rfingers 7.12502
rthumb 3.64258 -16.0045
lclavicle 2.04748e-014 3.10104e-014
lhumerus -41.4908 11.2257 77.6301
lradius 33.6944
lwrist 6.01601
lhand -20.0423 16.7549
lfingers 7.12502
lthumb 6.29902 46.6413
rfemur -13.7339 -26.0923 25.8596
rtibia 44.1704
rfoot -27.0132 -26.811
rtoes 6.70115
lfemur -21.5381 -1.54965 -17.3567
ltibia 40.6475
lfoot -20.0893 -9.51431
ltoes 18.8723
1184
root 19.4691 20.459 -0.16676 -328.726 -81.5517 -23.7043
lowerback 8.0935 3.27982 2.92562
upperback 2.9315 4.52338 1.5635
thorax -1.39179 2.22243 -0.432575
lowerneck -10.3604 -4.19093 -11.2355
upperneck 33.5315 -6.78785 6.79944
head 13.6962 -3.85405 3.60614
rclavicle 5.61567e-014 4.37326e-015
rhumerus -28.5758 0.18137 -86.098
rradius 41.6147
rwrist -15.009
rhand -23.0481 13.4577
rfingers 7.12502
rthumb 3.39667 -16.4949
lclavicle 5.61567e-014 4.37326e-015
lhumerus -41.323 10.5988 77.5298
lradius 33.7475
lwrist 5.76142
lhand -19.9213 16.8587
lfingers 7.12502
lthumb 6.41578 46.7415
rfemur -13.6316 -26.0437 25.965
rtibia 44.1983
rfoot -27.0168 -26.9618
rtoes 6.98766
lfemur -21.4715 -1.86007 -17.2328
ltibia 40.7205
lfoot -20.2666 -9.49866
ltoes 18.9172
